<svg xmlns="http://www.w3.org/2000/svg" width="24" height="24" viewBox="0 0 24 24" fill="none">
  <!-- Llama AIO activity bar icon — outline style like VS Code codicons -->
  <path
    stroke="#C5C5C5"
    stroke-width="1.5"
    stroke-linecap="round"
    stroke-linejoin="round"
    fill="none"
    d="
      M8.5 9
      L6.8 3.6
      M15.5 9
      L17.2 3.6
      M7.25 10.5
      c0-2.85 2.1-5 4.75-5
      s4.75 2.15 4.75 5
      c0 1.3-.45 2.4-1.2 3.25
      c-.35.4-.55.95-.55 1.5
      v.9
      H8.99
      v-.9
      c0-.55-.2-1.1-.55-1.5
      C7.7 12.9 7.25 11.8 7.25 10.5
      Z
      M9.5 15.75
      h5
      v1.1
      c0 .4-.35.75-.75.75
      h-3.5
      c-.4 0-.75-.35-.75-.75
      v-1.1
      Z
    "
  />
  <circle cx="10.1" cy="10.4" r="0.95" fill="#C5C5C5"/>
  <circle cx="13.9" cy="10.4" r="0.95" fill="#C5C5C5"/>
</svg>
